<mxfile host="app.diagrams.net" modified="2020-10-04T15:23:03.932Z" agent="5.0 (Windows NT 10.0; Win64; x64) AppleWebKit/537.36 (KHTML, like Gecko) Chrome/85.0.4183.102 Safari/537.36" etag="CwSyNmaZ4VevREgjqvhD" version="13.7.7" type="github" pages="14">
  <diagram id="RU6T_XyBfdtSHhOuz2BN" name="index page design-customer">
    <mxGraphModel dx="782" dy="469" grid="1" gridSize="10" guides="1" tooltips="1" connect="1" arrows="1" fold="1" page="1" pageScale="1" pageWidth="827" pageHeight="1169" math="0" shadow="0">
      <root>
        <mxCell id="0" />
        <mxCell id="1" parent="0" />
        <mxCell id="KuFRTyy1sL9n0-Y7JkWf-6" value="" style="whiteSpace=wrap;html=1;aspect=fixed;" parent="1" vertex="1">
          <mxGeometry x="170" y="100" width="460" height="460" as="geometry" />
        </mxCell>
        <mxCell id="KuFRTyy1sL9n0-Y7JkWf-5" value="login\logout" style="rounded=0;whiteSpace=wrap;html=1;" parent="1" vertex="1">
          <mxGeometry x="510" y="100" width="120" height="60" as="geometry" />
        </mxCell>
        <mxCell id="KuFRTyy1sL9n0-Y7JkWf-8" value="" style="rounded=0;whiteSpace=wrap;html=1;" parent="1" vertex="1">
          <mxGeometry x="170" y="100" width="340" height="60" as="geometry" />
        </mxCell>
        <mxCell id="KuFRTyy1sL9n0-Y7JkWf-9" value="new order" style="rounded=0;whiteSpace=wrap;html=1;" parent="1" vertex="1">
          <mxGeometry x="170" y="100" width="80" height="60" as="geometry" />
        </mxCell>
        <mxCell id="KuFRTyy1sL9n0-Y7JkWf-10" value="open orders status" style="rounded=0;whiteSpace=wrap;html=1;" parent="1" vertex="1">
          <mxGeometry x="250" y="100" width="80" height="60" as="geometry" />
        </mxCell>
        <mxCell id="KuFRTyy1sL9n0-Y7JkWf-12" value="orders history" style="rounded=0;whiteSpace=wrap;html=1;" parent="1" vertex="1">
          <mxGeometry x="330" y="100" width="80" height="60" as="geometry" />
        </mxCell>
        <mxCell id="SbKQJwH3Jen7V92oQiVP-1" value="customers&amp;nbsp;" style="rounded=1;whiteSpace=wrap;html=1;" parent="1" vertex="1">
          <mxGeometry x="340" y="20" width="120" height="60" as="geometry" />
        </mxCell>
        <mxCell id="SbKQJwH3Jen7V92oQiVP-2" value="customers complaint" style="rounded=0;whiteSpace=wrap;html=1;" parent="1" vertex="1">
          <mxGeometry x="410" y="100" width="100" height="60" as="geometry" />
        </mxCell>
      </root>
    </mxGraphModel>
  </diagram>
  <diagram name="index design-admin" id="POk8FH4XVCmBvcZcm9HS">
    <mxGraphModel dx="782" dy="469" grid="1" gridSize="10" guides="1" tooltips="1" connect="1" arrows="1" fold="1" page="1" pageScale="1" pageWidth="827" pageHeight="1169" math="0" shadow="0">
      <root>
        <mxCell id="nRdAHWZHHzKm64KJ2f5u-0" />
        <mxCell id="nRdAHWZHHzKm64KJ2f5u-1" parent="nRdAHWZHHzKm64KJ2f5u-0" />
        <mxCell id="nRdAHWZHHzKm64KJ2f5u-2" value="" style="whiteSpace=wrap;html=1;aspect=fixed;" parent="nRdAHWZHHzKm64KJ2f5u-1" vertex="1">
          <mxGeometry x="170" y="100" width="460" height="460" as="geometry" />
        </mxCell>
        <mxCell id="nRdAHWZHHzKm64KJ2f5u-3" value="login\logout" style="rounded=0;whiteSpace=wrap;html=1;" parent="nRdAHWZHHzKm64KJ2f5u-1" vertex="1">
          <mxGeometry x="510" y="100" width="120" height="60" as="geometry" />
        </mxCell>
        <mxCell id="nRdAHWZHHzKm64KJ2f5u-4" value="" style="rounded=0;whiteSpace=wrap;html=1;" parent="nRdAHWZHHzKm64KJ2f5u-1" vertex="1">
          <mxGeometry x="170" y="100" width="340" height="60" as="geometry" />
        </mxCell>
        <mxCell id="nRdAHWZHHzKm64KJ2f5u-5" value="new shpiment arrival" style="rounded=0;whiteSpace=wrap;html=1;" parent="nRdAHWZHHzKm64KJ2f5u-1" vertex="1">
          <mxGeometry x="170" y="100" width="80" height="60" as="geometry" />
        </mxCell>
        <mxCell id="nRdAHWZHHzKm64KJ2f5u-6" value="current orders open" style="rounded=0;whiteSpace=wrap;html=1;" parent="nRdAHWZHHzKm64KJ2f5u-1" vertex="1">
          <mxGeometry x="250" y="100" width="80" height="60" as="geometry" />
        </mxCell>
        <mxCell id="nRdAHWZHHzKm64KJ2f5u-7" value="orders history" style="rounded=0;whiteSpace=wrap;html=1;" parent="nRdAHWZHHzKm64KJ2f5u-1" vertex="1">
          <mxGeometry x="330" y="100" width="50" height="60" as="geometry" />
        </mxCell>
        <mxCell id="nRdAHWZHHzKm64KJ2f5u-8" value="index design-admin" style="rounded=1;whiteSpace=wrap;html=1;" parent="nRdAHWZHHzKm64KJ2f5u-1" vertex="1">
          <mxGeometry x="340" y="20" width="120" height="60" as="geometry" />
        </mxCell>
        <mxCell id="nRdAHWZHHzKm64KJ2f5u-9" value="customers complaint" style="rounded=0;whiteSpace=wrap;html=1;" parent="nRdAHWZHHzKm64KJ2f5u-1" vertex="1">
          <mxGeometry x="380" y="100" width="60" height="60" as="geometry" />
        </mxCell>
        <mxCell id="nRdAHWZHHzKm64KJ2f5u-13" value="current inventory" style="rounded=0;whiteSpace=wrap;html=1;" parent="nRdAHWZHHzKm64KJ2f5u-1" vertex="1">
          <mxGeometry x="440" y="100" width="70" height="60" as="geometry" />
        </mxCell>
      </root>
    </mxGraphModel>
  </diagram>
  <diagram name="customer: new order" id="tEkHQKPG1P-iAdVpwvds">
    <mxGraphModel dx="782" dy="469" grid="1" gridSize="10" guides="1" tooltips="1" connect="1" arrows="1" fold="1" page="1" pageScale="1" pageWidth="827" pageHeight="1169" math="0" shadow="0">
      <root>
        <mxCell id="5j8tnzTTVxC-ya_TtHKm-0" />
        <mxCell id="5j8tnzTTVxC-ya_TtHKm-1" parent="5j8tnzTTVxC-ya_TtHKm-0" />
        <mxCell id="5j8tnzTTVxC-ya_TtHKm-2" value="" style="whiteSpace=wrap;html=1;aspect=fixed;" parent="5j8tnzTTVxC-ya_TtHKm-1" vertex="1">
          <mxGeometry x="170" y="100" width="460" height="460" as="geometry" />
        </mxCell>
        <mxCell id="5j8tnzTTVxC-ya_TtHKm-3" value="login\logout" style="rounded=0;whiteSpace=wrap;html=1;" parent="5j8tnzTTVxC-ya_TtHKm-1" vertex="1">
          <mxGeometry x="510" y="100" width="120" height="60" as="geometry" />
        </mxCell>
        <mxCell id="5j8tnzTTVxC-ya_TtHKm-4" value="" style="rounded=0;whiteSpace=wrap;html=1;" parent="5j8tnzTTVxC-ya_TtHKm-1" vertex="1">
          <mxGeometry x="170" y="100" width="340" height="60" as="geometry" />
        </mxCell>
        <mxCell id="5j8tnzTTVxC-ya_TtHKm-5" value="new order" style="rounded=0;whiteSpace=wrap;html=1;" parent="5j8tnzTTVxC-ya_TtHKm-1" vertex="1">
          <mxGeometry x="170" y="100" width="80" height="60" as="geometry" />
        </mxCell>
        <mxCell id="5j8tnzTTVxC-ya_TtHKm-6" value="open orders status" style="rounded=0;whiteSpace=wrap;html=1;" parent="5j8tnzTTVxC-ya_TtHKm-1" vertex="1">
          <mxGeometry x="250" y="100" width="80" height="60" as="geometry" />
        </mxCell>
        <mxCell id="5j8tnzTTVxC-ya_TtHKm-7" value="orders history" style="rounded=0;whiteSpace=wrap;html=1;" parent="5j8tnzTTVxC-ya_TtHKm-1" vertex="1">
          <mxGeometry x="330" y="100" width="80" height="60" as="geometry" />
        </mxCell>
        <mxCell id="5j8tnzTTVxC-ya_TtHKm-8" value="customer: new order" style="rounded=1;whiteSpace=wrap;html=1;" parent="5j8tnzTTVxC-ya_TtHKm-1" vertex="1">
          <mxGeometry x="340" y="20" width="120" height="60" as="geometry" />
        </mxCell>
        <mxCell id="5j8tnzTTVxC-ya_TtHKm-9" value="customers complaint" style="rounded=0;whiteSpace=wrap;html=1;" parent="5j8tnzTTVxC-ya_TtHKm-1" vertex="1">
          <mxGeometry x="410" y="100" width="100" height="60" as="geometry" />
        </mxCell>
        <mxCell id="QY2wiVGdf4LhEiufUpb0-14" value="item order" style="swimlane;fontStyle=0;childLayout=stackLayout;horizontal=1;startSize=26;fillColor=none;horizontalStack=0;resizeParent=1;resizeParentMax=0;resizeLast=0;collapsible=1;marginBottom=0;" parent="5j8tnzTTVxC-ya_TtHKm-1" vertex="1">
          <mxGeometry x="200" y="200" width="60" height="104" as="geometry" />
        </mxCell>
        <mxCell id="QY2wiVGdf4LhEiufUpb0-15" value="Item 1" style="text;strokeColor=none;fillColor=none;align=left;verticalAlign=top;spacingLeft=4;spacingRight=4;overflow=hidden;rotatable=0;points=[[0,0.5],[1,0.5]];portConstraint=eastwest;" parent="QY2wiVGdf4LhEiufUpb0-14" vertex="1">
          <mxGeometry y="26" width="60" height="26" as="geometry" />
        </mxCell>
        <mxCell id="QY2wiVGdf4LhEiufUpb0-16" value="Item 2" style="text;strokeColor=none;fillColor=none;align=left;verticalAlign=top;spacingLeft=4;spacingRight=4;overflow=hidden;rotatable=0;points=[[0,0.5],[1,0.5]];portConstraint=eastwest;" parent="QY2wiVGdf4LhEiufUpb0-14" vertex="1">
          <mxGeometry y="52" width="60" height="26" as="geometry" />
        </mxCell>
        <mxCell id="QY2wiVGdf4LhEiufUpb0-17" value="Item 3" style="text;strokeColor=none;fillColor=none;align=left;verticalAlign=top;spacingLeft=4;spacingRight=4;overflow=hidden;rotatable=0;points=[[0,0.5],[1,0.5]];portConstraint=eastwest;" parent="QY2wiVGdf4LhEiufUpb0-14" vertex="1">
          <mxGeometry y="78" width="60" height="26" as="geometry" />
        </mxCell>
        <mxCell id="QY2wiVGdf4LhEiufUpb0-18" value="" style="rounded=1;whiteSpace=wrap;html=1;" parent="5j8tnzTTVxC-ya_TtHKm-1" vertex="1">
          <mxGeometry x="270" y="230" width="40" height="10" as="geometry" />
        </mxCell>
        <mxCell id="QY2wiVGdf4LhEiufUpb0-21" value="" style="rounded=1;whiteSpace=wrap;html=1;arcSize=0;" parent="5j8tnzTTVxC-ya_TtHKm-1" vertex="1">
          <mxGeometry x="268" y="286" width="40" height="10" as="geometry" />
        </mxCell>
        <mxCell id="QY2wiVGdf4LhEiufUpb0-22" value="" style="rounded=1;whiteSpace=wrap;html=1;arcSize=10;" parent="5j8tnzTTVxC-ya_TtHKm-1" vertex="1">
          <mxGeometry x="269" y="260" width="40" height="10" as="geometry" />
        </mxCell>
        <mxCell id="QY2wiVGdf4LhEiufUpb0-24" value="submit" style="rounded=1;whiteSpace=wrap;html=1;" parent="5j8tnzTTVxC-ya_TtHKm-1" vertex="1">
          <mxGeometry x="210" y="330" width="60" height="20" as="geometry" />
        </mxCell>
        <mxCell id="ROD2aImUjoVOhGmAeISN-0" value="required date" style="rounded=1;whiteSpace=wrap;html=1;" parent="5j8tnzTTVxC-ya_TtHKm-1" vertex="1">
          <mxGeometry x="340" y="210" width="100" height="30" as="geometry" />
        </mxCell>
        <mxCell id="K_tuI_3ELIskSOOmR3d9-0" value="order name" style="rounded=1;whiteSpace=wrap;html=1;" vertex="1" parent="5j8tnzTTVxC-ya_TtHKm-1">
          <mxGeometry x="340" y="250" width="100" height="30" as="geometry" />
        </mxCell>
      </root>
    </mxGraphModel>
  </diagram>
  <diagram name="customer: open orders status" id="T6CCOtBp-vvGactDprX1">
    <mxGraphModel dx="782" dy="469" grid="1" gridSize="10" guides="1" tooltips="1" connect="1" arrows="1" fold="1" page="1" pageScale="1" pageWidth="827" pageHeight="1169" math="0" shadow="0">
      <root>
        <mxCell id="hBSyb0fR7oJx2V62Bb5C-0" />
        <mxCell id="hBSyb0fR7oJx2V62Bb5C-1" parent="hBSyb0fR7oJx2V62Bb5C-0" />
        <mxCell id="hBSyb0fR7oJx2V62Bb5C-2" value="" style="whiteSpace=wrap;html=1;aspect=fixed;" parent="hBSyb0fR7oJx2V62Bb5C-1" vertex="1">
          <mxGeometry x="170" y="100" width="460" height="460" as="geometry" />
        </mxCell>
        <mxCell id="hBSyb0fR7oJx2V62Bb5C-3" value="login\logout" style="rounded=0;whiteSpace=wrap;html=1;" parent="hBSyb0fR7oJx2V62Bb5C-1" vertex="1">
          <mxGeometry x="510" y="100" width="120" height="60" as="geometry" />
        </mxCell>
        <mxCell id="hBSyb0fR7oJx2V62Bb5C-4" value="" style="rounded=0;whiteSpace=wrap;html=1;" parent="hBSyb0fR7oJx2V62Bb5C-1" vertex="1">
          <mxGeometry x="170" y="100" width="340" height="60" as="geometry" />
        </mxCell>
        <mxCell id="hBSyb0fR7oJx2V62Bb5C-5" value="new order" style="rounded=0;whiteSpace=wrap;html=1;" parent="hBSyb0fR7oJx2V62Bb5C-1" vertex="1">
          <mxGeometry x="170" y="100" width="80" height="60" as="geometry" />
        </mxCell>
        <mxCell id="hBSyb0fR7oJx2V62Bb5C-6" value="open orders status" style="rounded=0;whiteSpace=wrap;html=1;" parent="hBSyb0fR7oJx2V62Bb5C-1" vertex="1">
          <mxGeometry x="250" y="100" width="80" height="60" as="geometry" />
        </mxCell>
        <mxCell id="hBSyb0fR7oJx2V62Bb5C-7" value="orders history" style="rounded=0;whiteSpace=wrap;html=1;" parent="hBSyb0fR7oJx2V62Bb5C-1" vertex="1">
          <mxGeometry x="330" y="100" width="80" height="60" as="geometry" />
        </mxCell>
        <mxCell id="hBSyb0fR7oJx2V62Bb5C-8" value="customer: open orders status" style="rounded=1;whiteSpace=wrap;html=1;" parent="hBSyb0fR7oJx2V62Bb5C-1" vertex="1">
          <mxGeometry x="340" y="20" width="120" height="60" as="geometry" />
        </mxCell>
        <mxCell id="hBSyb0fR7oJx2V62Bb5C-9" value="customers complaint" style="rounded=0;whiteSpace=wrap;html=1;" parent="hBSyb0fR7oJx2V62Bb5C-1" vertex="1">
          <mxGeometry x="410" y="100" width="100" height="60" as="geometry" />
        </mxCell>
        <mxCell id="hBSyb0fR7oJx2V62Bb5C-12" value="order id + ordered date  + approved date + is there a problem with item ? " style="swimlane;fontStyle=0;childLayout=stackLayout;horizontal=1;startSize=26;fillColor=none;horizontalStack=0;resizeParent=1;resizeParentMax=0;resizeLast=0;collapsible=1;marginBottom=0;" parent="hBSyb0fR7oJx2V62Bb5C-1" vertex="1">
          <mxGeometry x="170" y="280" width="460" height="104" as="geometry" />
        </mxCell>
        <mxCell id="hBSyb0fR7oJx2V62Bb5C-13" value="Item 1" style="text;strokeColor=none;fillColor=none;align=left;verticalAlign=top;spacingLeft=4;spacingRight=4;overflow=hidden;rotatable=0;points=[[0,0.5],[1,0.5]];portConstraint=eastwest;" parent="hBSyb0fR7oJx2V62Bb5C-12" vertex="1">
          <mxGeometry y="26" width="460" height="26" as="geometry" />
        </mxCell>
        <mxCell id="hBSyb0fR7oJx2V62Bb5C-14" value="Item 2" style="text;strokeColor=none;fillColor=none;align=left;verticalAlign=top;spacingLeft=4;spacingRight=4;overflow=hidden;rotatable=0;points=[[0,0.5],[1,0.5]];portConstraint=eastwest;" parent="hBSyb0fR7oJx2V62Bb5C-12" vertex="1">
          <mxGeometry y="52" width="460" height="26" as="geometry" />
        </mxCell>
        <mxCell id="hBSyb0fR7oJx2V62Bb5C-15" value="Item 3" style="text;strokeColor=none;fillColor=none;align=left;verticalAlign=top;spacingLeft=4;spacingRight=4;overflow=hidden;rotatable=0;points=[[0,0.5],[1,0.5]];portConstraint=eastwest;" parent="hBSyb0fR7oJx2V62Bb5C-12" vertex="1">
          <mxGeometry y="78" width="460" height="26" as="geometry" />
        </mxCell>
        <mxCell id="GwdLemWPU5inoUgANSNg-0" value="לחיצה על הזמנה מרחיבה ומציגה את ההזמנה" style="text;html=1;strokeColor=none;fillColor=none;align=center;verticalAlign=middle;whiteSpace=wrap;rounded=0;" vertex="1" parent="hBSyb0fR7oJx2V62Bb5C-1">
          <mxGeometry x="310" y="420" width="180" height="90" as="geometry" />
        </mxCell>
      </root>
    </mxGraphModel>
  </diagram>
  <diagram name="customer: order history" id="chKF3ogbAHSYc7ho7l-r">
    <mxGraphModel dx="782" dy="469" grid="1" gridSize="10" guides="1" tooltips="1" connect="1" arrows="1" fold="1" page="1" pageScale="1" pageWidth="827" pageHeight="1169" math="0" shadow="0">
      <root>
        <mxCell id="BJ1bIfrvsE0M48W3pOXN-0" />
        <mxCell id="BJ1bIfrvsE0M48W3pOXN-1" parent="BJ1bIfrvsE0M48W3pOXN-0" />
        <mxCell id="BJ1bIfrvsE0M48W3pOXN-2" value="" style="whiteSpace=wrap;html=1;aspect=fixed;" parent="BJ1bIfrvsE0M48W3pOXN-1" vertex="1">
          <mxGeometry x="170" y="100" width="460" height="460" as="geometry" />
        </mxCell>
        <mxCell id="BJ1bIfrvsE0M48W3pOXN-3" value="login\logout" style="rounded=0;whiteSpace=wrap;html=1;" parent="BJ1bIfrvsE0M48W3pOXN-1" vertex="1">
          <mxGeometry x="510" y="100" width="120" height="60" as="geometry" />
        </mxCell>
        <mxCell id="BJ1bIfrvsE0M48W3pOXN-4" value="" style="rounded=0;whiteSpace=wrap;html=1;" parent="BJ1bIfrvsE0M48W3pOXN-1" vertex="1">
          <mxGeometry x="170" y="100" width="340" height="60" as="geometry" />
        </mxCell>
        <mxCell id="BJ1bIfrvsE0M48W3pOXN-5" value="new order" style="rounded=0;whiteSpace=wrap;html=1;" parent="BJ1bIfrvsE0M48W3pOXN-1" vertex="1">
          <mxGeometry x="170" y="100" width="80" height="60" as="geometry" />
        </mxCell>
        <mxCell id="BJ1bIfrvsE0M48W3pOXN-6" value="open orders status" style="rounded=0;whiteSpace=wrap;html=1;" parent="BJ1bIfrvsE0M48W3pOXN-1" vertex="1">
          <mxGeometry x="250" y="100" width="80" height="60" as="geometry" />
        </mxCell>
        <mxCell id="BJ1bIfrvsE0M48W3pOXN-7" value="orders history" style="rounded=0;whiteSpace=wrap;html=1;" parent="BJ1bIfrvsE0M48W3pOXN-1" vertex="1">
          <mxGeometry x="330" y="100" width="80" height="60" as="geometry" />
        </mxCell>
        <mxCell id="BJ1bIfrvsE0M48W3pOXN-8" value="customer: order history" style="rounded=1;whiteSpace=wrap;html=1;" parent="BJ1bIfrvsE0M48W3pOXN-1" vertex="1">
          <mxGeometry x="340" y="20" width="120" height="60" as="geometry" />
        </mxCell>
        <mxCell id="BJ1bIfrvsE0M48W3pOXN-9" value="customers complaint" style="rounded=0;whiteSpace=wrap;html=1;" parent="BJ1bIfrvsE0M48W3pOXN-1" vertex="1">
          <mxGeometry x="410" y="100" width="100" height="60" as="geometry" />
        </mxCell>
        <mxCell id="1L5LSiMtGyh-7heDaQiV-0" value="order id + order date + completed date+ order name" style="swimlane;fontStyle=0;childLayout=stackLayout;horizontal=1;startSize=26;fillColor=none;horizontalStack=0;resizeParent=1;resizeParentMax=0;resizeLast=0;collapsible=1;marginBottom=0;" parent="BJ1bIfrvsE0M48W3pOXN-1" vertex="1">
          <mxGeometry x="180" y="270" width="350" height="104" as="geometry" />
        </mxCell>
        <mxCell id="1L5LSiMtGyh-7heDaQiV-1" value="Item 1" style="text;strokeColor=none;fillColor=none;align=left;verticalAlign=top;spacingLeft=4;spacingRight=4;overflow=hidden;rotatable=0;points=[[0,0.5],[1,0.5]];portConstraint=eastwest;" parent="1L5LSiMtGyh-7heDaQiV-0" vertex="1">
          <mxGeometry y="26" width="350" height="26" as="geometry" />
        </mxCell>
        <mxCell id="1L5LSiMtGyh-7heDaQiV-2" value="Item 2" style="text;strokeColor=none;fillColor=none;align=left;verticalAlign=top;spacingLeft=4;spacingRight=4;overflow=hidden;rotatable=0;points=[[0,0.5],[1,0.5]];portConstraint=eastwest;" parent="1L5LSiMtGyh-7heDaQiV-0" vertex="1">
          <mxGeometry y="52" width="350" height="26" as="geometry" />
        </mxCell>
        <mxCell id="1L5LSiMtGyh-7heDaQiV-3" value="Item 3" style="text;strokeColor=none;fillColor=none;align=left;verticalAlign=top;spacingLeft=4;spacingRight=4;overflow=hidden;rotatable=0;points=[[0,0.5],[1,0.5]];portConstraint=eastwest;" parent="1L5LSiMtGyh-7heDaQiV-0" vertex="1">
          <mxGeometry y="78" width="350" height="26" as="geometry" />
        </mxCell>
        <mxCell id="H_sycYBH6R837h-vld5D-0" value="לחיצה על הזמנה מרחיבה ומציגה את ההזמנה" style="text;html=1;strokeColor=none;fillColor=none;align=center;verticalAlign=middle;whiteSpace=wrap;rounded=0;" vertex="1" parent="BJ1bIfrvsE0M48W3pOXN-1">
          <mxGeometry x="310" y="420" width="180" height="90" as="geometry" />
        </mxCell>
      </root>
    </mxGraphModel>
  </diagram>
  <diagram name="customers complaint" id="m6JcI_UM-bxqtvXkAjAX">
    <mxGraphModel dx="782" dy="469" grid="1" gridSize="10" guides="1" tooltips="1" connect="1" arrows="1" fold="1" page="1" pageScale="1" pageWidth="827" pageHeight="1169" math="0" shadow="0">
      <root>
        <mxCell id="WFYpw5bklesBbhun9uAe-0" />
        <mxCell id="WFYpw5bklesBbhun9uAe-1" parent="WFYpw5bklesBbhun9uAe-0" />
        <mxCell id="WFYpw5bklesBbhun9uAe-2" value="" style="whiteSpace=wrap;html=1;aspect=fixed;" vertex="1" parent="WFYpw5bklesBbhun9uAe-1">
          <mxGeometry x="160" y="100" width="470" height="470" as="geometry" />
        </mxCell>
        <mxCell id="WFYpw5bklesBbhun9uAe-3" value="login\logout" style="rounded=0;whiteSpace=wrap;html=1;" vertex="1" parent="WFYpw5bklesBbhun9uAe-1">
          <mxGeometry x="510" y="100" width="120" height="60" as="geometry" />
        </mxCell>
        <mxCell id="WFYpw5bklesBbhun9uAe-4" value="" style="rounded=0;whiteSpace=wrap;html=1;" vertex="1" parent="WFYpw5bklesBbhun9uAe-1">
          <mxGeometry x="170" y="100" width="340" height="60" as="geometry" />
        </mxCell>
        <mxCell id="WFYpw5bklesBbhun9uAe-5" value="new order" style="rounded=0;whiteSpace=wrap;html=1;" vertex="1" parent="WFYpw5bklesBbhun9uAe-1">
          <mxGeometry x="170" y="100" width="80" height="60" as="geometry" />
        </mxCell>
        <mxCell id="WFYpw5bklesBbhun9uAe-6" value="open orders status" style="rounded=0;whiteSpace=wrap;html=1;" vertex="1" parent="WFYpw5bklesBbhun9uAe-1">
          <mxGeometry x="250" y="100" width="80" height="60" as="geometry" />
        </mxCell>
        <mxCell id="WFYpw5bklesBbhun9uAe-7" value="orders history" style="rounded=0;whiteSpace=wrap;html=1;" vertex="1" parent="WFYpw5bklesBbhun9uAe-1">
          <mxGeometry x="330" y="100" width="80" height="60" as="geometry" />
        </mxCell>
        <mxCell id="WFYpw5bklesBbhun9uAe-8" value="customers complaint" style="rounded=1;whiteSpace=wrap;html=1;" vertex="1" parent="WFYpw5bklesBbhun9uAe-1">
          <mxGeometry x="340" y="20" width="120" height="60" as="geometry" />
        </mxCell>
        <mxCell id="WFYpw5bklesBbhun9uAe-9" value="customers complaint" style="rounded=0;whiteSpace=wrap;html=1;" vertex="1" parent="WFYpw5bklesBbhun9uAe-1">
          <mxGeometry x="410" y="100" width="100" height="60" as="geometry" />
        </mxCell>
        <mxCell id="WFYpw5bklesBbhun9uAe-10" value="" style="rounded=1;whiteSpace=wrap;html=1;arcSize=0;" vertex="1" parent="WFYpw5bklesBbhun9uAe-1">
          <mxGeometry x="230" y="250" width="120" height="20" as="geometry" />
        </mxCell>
        <mxCell id="Cm0q72TPQGR1ynn2G4c5-0" value="" style="rounded=1;whiteSpace=wrap;html=1;" vertex="1" parent="WFYpw5bklesBbhun9uAe-1">
          <mxGeometry x="230" y="280" width="120" height="60" as="geometry" />
        </mxCell>
        <mxCell id="Cm0q72TPQGR1ynn2G4c5-1" value="submit" style="rounded=1;whiteSpace=wrap;html=1;arcSize=50;" vertex="1" parent="WFYpw5bklesBbhun9uAe-1">
          <mxGeometry x="250" y="360" width="70" height="30" as="geometry" />
        </mxCell>
        <mxCell id="Cm0q72TPQGR1ynn2G4c5-2" value="order id" style="text;html=1;strokeColor=none;fillColor=none;align=center;verticalAlign=middle;whiteSpace=wrap;rounded=0;" vertex="1" parent="WFYpw5bklesBbhun9uAe-1">
          <mxGeometry x="180" y="250" width="50" height="20" as="geometry" />
        </mxCell>
        <mxCell id="Cm0q72TPQGR1ynn2G4c5-3" value="complaint" style="text;html=1;strokeColor=none;fillColor=none;align=center;verticalAlign=middle;whiteSpace=wrap;rounded=0;" vertex="1" parent="WFYpw5bklesBbhun9uAe-1">
          <mxGeometry x="176" y="290" width="50" height="20" as="geometry" />
        </mxCell>
      </root>
    </mxGraphModel>
  </diagram>
  <diagram name="admin: new shipment arrival" id="faEheJyZewebqBAgxI5x">
    <mxGraphModel dx="782" dy="469" grid="1" gridSize="10" guides="1" tooltips="1" connect="1" arrows="1" fold="1" page="1" pageScale="1" pageWidth="827" pageHeight="1169" math="0" shadow="0">
      <root>
        <mxCell id="4UumpxWZXo5XiO7WHAN0-0" />
        <mxCell id="4UumpxWZXo5XiO7WHAN0-1" parent="4UumpxWZXo5XiO7WHAN0-0" />
        <mxCell id="4UumpxWZXo5XiO7WHAN0-2" value="" style="whiteSpace=wrap;html=1;aspect=fixed;" vertex="1" parent="4UumpxWZXo5XiO7WHAN0-1">
          <mxGeometry x="170" y="100" width="460" height="460" as="geometry" />
        </mxCell>
        <mxCell id="4UumpxWZXo5XiO7WHAN0-3" value="login\logout" style="rounded=0;whiteSpace=wrap;html=1;" vertex="1" parent="4UumpxWZXo5XiO7WHAN0-1">
          <mxGeometry x="510" y="100" width="120" height="60" as="geometry" />
        </mxCell>
        <mxCell id="4UumpxWZXo5XiO7WHAN0-4" value="" style="rounded=0;whiteSpace=wrap;html=1;" vertex="1" parent="4UumpxWZXo5XiO7WHAN0-1">
          <mxGeometry x="170" y="100" width="340" height="60" as="geometry" />
        </mxCell>
        <mxCell id="4UumpxWZXo5XiO7WHAN0-5" value="new shpiment arrival" style="rounded=0;whiteSpace=wrap;html=1;" vertex="1" parent="4UumpxWZXo5XiO7WHAN0-1">
          <mxGeometry x="170" y="100" width="80" height="60" as="geometry" />
        </mxCell>
        <mxCell id="4UumpxWZXo5XiO7WHAN0-6" value="current orders open" style="rounded=0;whiteSpace=wrap;html=1;" vertex="1" parent="4UumpxWZXo5XiO7WHAN0-1">
          <mxGeometry x="250" y="100" width="80" height="60" as="geometry" />
        </mxCell>
        <mxCell id="4UumpxWZXo5XiO7WHAN0-7" value="orders history" style="rounded=0;whiteSpace=wrap;html=1;" vertex="1" parent="4UumpxWZXo5XiO7WHAN0-1">
          <mxGeometry x="330" y="100" width="50" height="60" as="geometry" />
        </mxCell>
        <mxCell id="4UumpxWZXo5XiO7WHAN0-8" value="admin: new shipment arrival" style="rounded=1;whiteSpace=wrap;html=1;" vertex="1" parent="4UumpxWZXo5XiO7WHAN0-1">
          <mxGeometry x="340" y="20" width="120" height="60" as="geometry" />
        </mxCell>
        <mxCell id="4UumpxWZXo5XiO7WHAN0-9" value="customers complaint" style="rounded=0;whiteSpace=wrap;html=1;" vertex="1" parent="4UumpxWZXo5XiO7WHAN0-1">
          <mxGeometry x="380" y="100" width="60" height="60" as="geometry" />
        </mxCell>
        <mxCell id="4UumpxWZXo5XiO7WHAN0-10" value="current inventory" style="rounded=0;whiteSpace=wrap;html=1;" vertex="1" parent="4UumpxWZXo5XiO7WHAN0-1">
          <mxGeometry x="440" y="100" width="70" height="60" as="geometry" />
        </mxCell>
        <mxCell id="CExdJrD9aGnRrUMO0ixW-0" value="items" style="swimlane;fontStyle=0;childLayout=stackLayout;horizontal=1;startSize=26;fillColor=none;horizontalStack=0;resizeParent=1;resizeParentMax=0;resizeLast=0;collapsible=1;marginBottom=0;" vertex="1" parent="4UumpxWZXo5XiO7WHAN0-1">
          <mxGeometry x="200" y="200" width="60" height="104" as="geometry" />
        </mxCell>
        <mxCell id="CExdJrD9aGnRrUMO0ixW-1" value="Item 1" style="text;strokeColor=none;fillColor=none;align=left;verticalAlign=top;spacingLeft=4;spacingRight=4;overflow=hidden;rotatable=0;points=[[0,0.5],[1,0.5]];portConstraint=eastwest;" vertex="1" parent="CExdJrD9aGnRrUMO0ixW-0">
          <mxGeometry y="26" width="60" height="26" as="geometry" />
        </mxCell>
        <mxCell id="CExdJrD9aGnRrUMO0ixW-2" value="Item 2" style="text;strokeColor=none;fillColor=none;align=left;verticalAlign=top;spacingLeft=4;spacingRight=4;overflow=hidden;rotatable=0;points=[[0,0.5],[1,0.5]];portConstraint=eastwest;" vertex="1" parent="CExdJrD9aGnRrUMO0ixW-0">
          <mxGeometry y="52" width="60" height="26" as="geometry" />
        </mxCell>
        <mxCell id="CExdJrD9aGnRrUMO0ixW-3" value="Item 3" style="text;strokeColor=none;fillColor=none;align=left;verticalAlign=top;spacingLeft=4;spacingRight=4;overflow=hidden;rotatable=0;points=[[0,0.5],[1,0.5]];portConstraint=eastwest;" vertex="1" parent="CExdJrD9aGnRrUMO0ixW-0">
          <mxGeometry y="78" width="60" height="26" as="geometry" />
        </mxCell>
        <mxCell id="CExdJrD9aGnRrUMO0ixW-6" value="" style="rounded=1;whiteSpace=wrap;html=1;" vertex="1" parent="4UumpxWZXo5XiO7WHAN0-1">
          <mxGeometry x="270" y="230" width="90" height="10" as="geometry" />
        </mxCell>
        <mxCell id="CExdJrD9aGnRrUMO0ixW-7" value="" style="rounded=1;whiteSpace=wrap;html=1;" vertex="1" parent="4UumpxWZXo5XiO7WHAN0-1">
          <mxGeometry x="270" y="260" width="90" height="10" as="geometry" />
        </mxCell>
        <mxCell id="CExdJrD9aGnRrUMO0ixW-10" value="" style="rounded=1;whiteSpace=wrap;html=1;" vertex="1" parent="4UumpxWZXo5XiO7WHAN0-1">
          <mxGeometry x="270" y="290" width="90" height="10" as="geometry" />
        </mxCell>
        <mxCell id="CExdJrD9aGnRrUMO0ixW-11" value="submit" style="rounded=1;whiteSpace=wrap;html=1;" vertex="1" parent="4UumpxWZXo5XiO7WHAN0-1">
          <mxGeometry x="230" y="350" width="80" height="20" as="geometry" />
        </mxCell>
      </root>
    </mxGraphModel>
  </diagram>
  <diagram name="admin: current open orders" id="FJrSdfZvSKpycDL4VWWW">
    <mxGraphModel dx="782" dy="469" grid="1" gridSize="10" guides="1" tooltips="1" connect="1" arrows="1" fold="1" page="1" pageScale="1" pageWidth="827" pageHeight="1169" math="0" shadow="0">
      <root>
        <mxCell id="oCHWnz-JJlBFHkDFwUjm-0" />
        <mxCell id="oCHWnz-JJlBFHkDFwUjm-1" parent="oCHWnz-JJlBFHkDFwUjm-0" />
        <mxCell id="oCHWnz-JJlBFHkDFwUjm-2" value="" style="whiteSpace=wrap;html=1;aspect=fixed;" vertex="1" parent="oCHWnz-JJlBFHkDFwUjm-1">
          <mxGeometry x="170" y="100" width="460" height="460" as="geometry" />
        </mxCell>
        <mxCell id="oCHWnz-JJlBFHkDFwUjm-3" value="login\logout" style="rounded=0;whiteSpace=wrap;html=1;" vertex="1" parent="oCHWnz-JJlBFHkDFwUjm-1">
          <mxGeometry x="510" y="100" width="120" height="60" as="geometry" />
        </mxCell>
        <mxCell id="oCHWnz-JJlBFHkDFwUjm-4" value="" style="rounded=0;whiteSpace=wrap;html=1;" vertex="1" parent="oCHWnz-JJlBFHkDFwUjm-1">
          <mxGeometry x="170" y="100" width="340" height="60" as="geometry" />
        </mxCell>
        <mxCell id="oCHWnz-JJlBFHkDFwUjm-5" value="new shpiment arrival" style="rounded=0;whiteSpace=wrap;html=1;" vertex="1" parent="oCHWnz-JJlBFHkDFwUjm-1">
          <mxGeometry x="170" y="100" width="80" height="60" as="geometry" />
        </mxCell>
        <mxCell id="oCHWnz-JJlBFHkDFwUjm-6" value="current orders open" style="rounded=0;whiteSpace=wrap;html=1;" vertex="1" parent="oCHWnz-JJlBFHkDFwUjm-1">
          <mxGeometry x="250" y="100" width="80" height="60" as="geometry" />
        </mxCell>
        <mxCell id="oCHWnz-JJlBFHkDFwUjm-7" value="orders history" style="rounded=0;whiteSpace=wrap;html=1;" vertex="1" parent="oCHWnz-JJlBFHkDFwUjm-1">
          <mxGeometry x="330" y="100" width="50" height="60" as="geometry" />
        </mxCell>
        <mxCell id="oCHWnz-JJlBFHkDFwUjm-8" value="admin: current open orders" style="rounded=1;whiteSpace=wrap;html=1;" vertex="1" parent="oCHWnz-JJlBFHkDFwUjm-1">
          <mxGeometry x="340" y="20" width="120" height="60" as="geometry" />
        </mxCell>
        <mxCell id="oCHWnz-JJlBFHkDFwUjm-9" value="customers complaint" style="rounded=0;whiteSpace=wrap;html=1;" vertex="1" parent="oCHWnz-JJlBFHkDFwUjm-1">
          <mxGeometry x="380" y="100" width="60" height="60" as="geometry" />
        </mxCell>
        <mxCell id="oCHWnz-JJlBFHkDFwUjm-10" value="current inventory" style="rounded=0;whiteSpace=wrap;html=1;" vertex="1" parent="oCHWnz-JJlBFHkDFwUjm-1">
          <mxGeometry x="440" y="100" width="70" height="60" as="geometry" />
        </mxCell>
        <mxCell id="oCHWnz-JJlBFHkDFwUjm-11" value="order id" style="swimlane;fontStyle=0;childLayout=stackLayout;horizontal=1;startSize=26;fillColor=none;horizontalStack=0;resizeParent=1;resizeParentMax=0;resizeLast=0;collapsible=1;marginBottom=0;" vertex="1" parent="oCHWnz-JJlBFHkDFwUjm-1">
          <mxGeometry x="200" y="200" width="60" height="104" as="geometry" />
        </mxCell>
        <mxCell id="oCHWnz-JJlBFHkDFwUjm-12" value="1" style="text;strokeColor=none;fillColor=none;align=left;verticalAlign=top;spacingLeft=4;spacingRight=4;overflow=hidden;rotatable=0;points=[[0,0.5],[1,0.5]];portConstraint=eastwest;" vertex="1" parent="oCHWnz-JJlBFHkDFwUjm-11">
          <mxGeometry y="26" width="60" height="26" as="geometry" />
        </mxCell>
        <mxCell id="oCHWnz-JJlBFHkDFwUjm-13" value="2" style="text;strokeColor=none;fillColor=none;align=left;verticalAlign=top;spacingLeft=4;spacingRight=4;overflow=hidden;rotatable=0;points=[[0,0.5],[1,0.5]];portConstraint=eastwest;" vertex="1" parent="oCHWnz-JJlBFHkDFwUjm-11">
          <mxGeometry y="52" width="60" height="26" as="geometry" />
        </mxCell>
        <mxCell id="oCHWnz-JJlBFHkDFwUjm-14" value="3" style="text;strokeColor=none;fillColor=none;align=left;verticalAlign=top;spacingLeft=4;spacingRight=4;overflow=hidden;rotatable=0;points=[[0,0.5],[1,0.5]];portConstraint=eastwest;" vertex="1" parent="oCHWnz-JJlBFHkDFwUjm-11">
          <mxGeometry y="78" width="60" height="26" as="geometry" />
        </mxCell>
        <mxCell id="33A41cygqHmTg-O3WDgo-1" value="req date" style="text;html=1;strokeColor=none;fillColor=none;align=center;verticalAlign=middle;whiteSpace=wrap;rounded=0;" vertex="1" parent="oCHWnz-JJlBFHkDFwUjm-1">
          <mxGeometry x="260" y="230" width="60" height="30" as="geometry" />
        </mxCell>
        <mxCell id="33A41cygqHmTg-O3WDgo-2" value="req date" style="text;html=1;strokeColor=none;fillColor=none;align=center;verticalAlign=middle;whiteSpace=wrap;rounded=0;" vertex="1" parent="oCHWnz-JJlBFHkDFwUjm-1">
          <mxGeometry x="260" y="250" width="60" height="30" as="geometry" />
        </mxCell>
        <mxCell id="33A41cygqHmTg-O3WDgo-3" value="req date" style="text;html=1;strokeColor=none;fillColor=none;align=center;verticalAlign=middle;whiteSpace=wrap;rounded=0;" vertex="1" parent="oCHWnz-JJlBFHkDFwUjm-1">
          <mxGeometry x="260" y="274" width="60" height="30" as="geometry" />
        </mxCell>
        <mxCell id="33A41cygqHmTg-O3WDgo-4" value="customer name" style="text;html=1;strokeColor=none;fillColor=none;align=center;verticalAlign=middle;whiteSpace=wrap;rounded=0;" vertex="1" parent="oCHWnz-JJlBFHkDFwUjm-1">
          <mxGeometry x="320" y="230" width="95" height="30" as="geometry" />
        </mxCell>
        <mxCell id="33A41cygqHmTg-O3WDgo-5" value="customer name" style="text;html=1;strokeColor=none;fillColor=none;align=center;verticalAlign=middle;whiteSpace=wrap;rounded=0;" vertex="1" parent="oCHWnz-JJlBFHkDFwUjm-1">
          <mxGeometry x="320" y="250" width="95" height="30" as="geometry" />
        </mxCell>
        <mxCell id="33A41cygqHmTg-O3WDgo-6" value="customer name" style="text;html=1;strokeColor=none;fillColor=none;align=center;verticalAlign=middle;whiteSpace=wrap;rounded=0;" vertex="1" parent="oCHWnz-JJlBFHkDFwUjm-1">
          <mxGeometry x="323" y="273" width="95" height="30" as="geometry" />
        </mxCell>
        <mxCell id="33A41cygqHmTg-O3WDgo-7" value="לחיצה על הזמנה מרחיבה ומציגה את ההזמנה" style="text;html=1;strokeColor=none;fillColor=none;align=center;verticalAlign=middle;whiteSpace=wrap;rounded=0;" vertex="1" parent="oCHWnz-JJlBFHkDFwUjm-1">
          <mxGeometry x="220" y="320" width="180" height="90" as="geometry" />
        </mxCell>
      </root>
    </mxGraphModel>
  </diagram>
  <diagram name="admin: orders history" id="ktE58yIYDccc9u6RPPRC">
    <mxGraphModel dx="782" dy="469" grid="1" gridSize="10" guides="1" tooltips="1" connect="1" arrows="1" fold="1" page="1" pageScale="1" pageWidth="827" pageHeight="1169" math="0" shadow="0">
      <root>
        <mxCell id="bAkyEYOokipvHXMynNp--0" />
        <mxCell id="bAkyEYOokipvHXMynNp--1" parent="bAkyEYOokipvHXMynNp--0" />
        <mxCell id="bAkyEYOokipvHXMynNp--2" value="" style="whiteSpace=wrap;html=1;aspect=fixed;" vertex="1" parent="bAkyEYOokipvHXMynNp--1">
          <mxGeometry x="170" y="160" width="460" height="460" as="geometry" />
        </mxCell>
        <mxCell id="bAkyEYOokipvHXMynNp--3" value="login\logout" style="rounded=0;whiteSpace=wrap;html=1;" vertex="1" parent="bAkyEYOokipvHXMynNp--1">
          <mxGeometry x="510" y="100" width="120" height="60" as="geometry" />
        </mxCell>
        <mxCell id="bAkyEYOokipvHXMynNp--4" value="" style="rounded=0;whiteSpace=wrap;html=1;" vertex="1" parent="bAkyEYOokipvHXMynNp--1">
          <mxGeometry x="170" y="100" width="340" height="60" as="geometry" />
        </mxCell>
        <mxCell id="bAkyEYOokipvHXMynNp--5" value="new shpiment arrival" style="rounded=0;whiteSpace=wrap;html=1;" vertex="1" parent="bAkyEYOokipvHXMynNp--1">
          <mxGeometry x="170" y="100" width="80" height="60" as="geometry" />
        </mxCell>
        <mxCell id="bAkyEYOokipvHXMynNp--6" value="current orders open" style="rounded=0;whiteSpace=wrap;html=1;" vertex="1" parent="bAkyEYOokipvHXMynNp--1">
          <mxGeometry x="250" y="100" width="80" height="60" as="geometry" />
        </mxCell>
        <mxCell id="bAkyEYOokipvHXMynNp--7" value="orders history" style="rounded=0;whiteSpace=wrap;html=1;" vertex="1" parent="bAkyEYOokipvHXMynNp--1">
          <mxGeometry x="330" y="100" width="50" height="60" as="geometry" />
        </mxCell>
        <mxCell id="bAkyEYOokipvHXMynNp--8" value="admin: orders hisotry" style="rounded=1;whiteSpace=wrap;html=1;" vertex="1" parent="bAkyEYOokipvHXMynNp--1">
          <mxGeometry x="340" y="20" width="120" height="60" as="geometry" />
        </mxCell>
        <mxCell id="bAkyEYOokipvHXMynNp--9" value="customers complaints" style="rounded=0;whiteSpace=wrap;html=1;" vertex="1" parent="bAkyEYOokipvHXMynNp--1">
          <mxGeometry x="380" y="100" width="60" height="60" as="geometry" />
        </mxCell>
        <mxCell id="bAkyEYOokipvHXMynNp--10" value="current inventory" style="rounded=0;whiteSpace=wrap;html=1;" vertex="1" parent="bAkyEYOokipvHXMynNp--1">
          <mxGeometry x="440" y="100" width="70" height="60" as="geometry" />
        </mxCell>
        <mxCell id="bAkyEYOokipvHXMynNp--21" value="לחיצה על הזמנה מרחיבה ומציגה את ההזמנה" style="text;html=1;strokeColor=none;fillColor=none;align=center;verticalAlign=middle;whiteSpace=wrap;rounded=0;" vertex="1" parent="bAkyEYOokipvHXMynNp--1">
          <mxGeometry x="220" y="320" width="180" height="90" as="geometry" />
        </mxCell>
        <mxCell id="MTrtN9rhIBqL9cseUPtr-0" value="order id + order date + completed date + customer" style="swimlane;fontStyle=0;childLayout=stackLayout;horizontal=1;startSize=26;fillColor=none;horizontalStack=0;resizeParent=1;resizeParentMax=0;resizeLast=0;collapsible=1;marginBottom=0;" vertex="1" parent="bAkyEYOokipvHXMynNp--1">
          <mxGeometry x="195" y="220" width="285" height="104" as="geometry" />
        </mxCell>
        <mxCell id="MTrtN9rhIBqL9cseUPtr-1" value="Item 1" style="text;strokeColor=none;fillColor=none;align=left;verticalAlign=top;spacingLeft=4;spacingRight=4;overflow=hidden;rotatable=0;points=[[0,0.5],[1,0.5]];portConstraint=eastwest;" vertex="1" parent="MTrtN9rhIBqL9cseUPtr-0">
          <mxGeometry y="26" width="285" height="26" as="geometry" />
        </mxCell>
        <mxCell id="MTrtN9rhIBqL9cseUPtr-2" value="Item 2" style="text;strokeColor=none;fillColor=none;align=left;verticalAlign=top;spacingLeft=4;spacingRight=4;overflow=hidden;rotatable=0;points=[[0,0.5],[1,0.5]];portConstraint=eastwest;" vertex="1" parent="MTrtN9rhIBqL9cseUPtr-0">
          <mxGeometry y="52" width="285" height="26" as="geometry" />
        </mxCell>
        <mxCell id="MTrtN9rhIBqL9cseUPtr-3" value="Item 3" style="text;strokeColor=none;fillColor=none;align=left;verticalAlign=top;spacingLeft=4;spacingRight=4;overflow=hidden;rotatable=0;points=[[0,0.5],[1,0.5]];portConstraint=eastwest;" vertex="1" parent="MTrtN9rhIBqL9cseUPtr-0">
          <mxGeometry y="78" width="285" height="26" as="geometry" />
        </mxCell>
      </root>
    </mxGraphModel>
  </diagram>
  <diagram name="admin: customers complaint" id="K6Tdn0AIJ3oluFW2munW">
    <mxGraphModel dx="782" dy="469" grid="1" gridSize="10" guides="1" tooltips="1" connect="1" arrows="1" fold="1" page="1" pageScale="1" pageWidth="827" pageHeight="1169" math="0" shadow="0">
      <root>
        <mxCell id="CO7CpbcsAI0Kber6YVDz-0" />
        <mxCell id="CO7CpbcsAI0Kber6YVDz-1" parent="CO7CpbcsAI0Kber6YVDz-0" />
        <mxCell id="CO7CpbcsAI0Kber6YVDz-2" value="" style="whiteSpace=wrap;html=1;aspect=fixed;" vertex="1" parent="CO7CpbcsAI0Kber6YVDz-1">
          <mxGeometry x="170" y="160" width="460" height="460" as="geometry" />
        </mxCell>
        <mxCell id="CO7CpbcsAI0Kber6YVDz-3" value="login\logout" style="rounded=0;whiteSpace=wrap;html=1;" vertex="1" parent="CO7CpbcsAI0Kber6YVDz-1">
          <mxGeometry x="510" y="100" width="120" height="60" as="geometry" />
        </mxCell>
        <mxCell id="CO7CpbcsAI0Kber6YVDz-4" value="" style="rounded=0;whiteSpace=wrap;html=1;" vertex="1" parent="CO7CpbcsAI0Kber6YVDz-1">
          <mxGeometry x="170" y="100" width="340" height="60" as="geometry" />
        </mxCell>
        <mxCell id="CO7CpbcsAI0Kber6YVDz-5" value="new shpiment arrival" style="rounded=0;whiteSpace=wrap;html=1;" vertex="1" parent="CO7CpbcsAI0Kber6YVDz-1">
          <mxGeometry x="170" y="100" width="80" height="60" as="geometry" />
        </mxCell>
        <mxCell id="CO7CpbcsAI0Kber6YVDz-6" value="current orders open" style="rounded=0;whiteSpace=wrap;html=1;" vertex="1" parent="CO7CpbcsAI0Kber6YVDz-1">
          <mxGeometry x="250" y="100" width="80" height="60" as="geometry" />
        </mxCell>
        <mxCell id="CO7CpbcsAI0Kber6YVDz-7" value="orders history" style="rounded=0;whiteSpace=wrap;html=1;" vertex="1" parent="CO7CpbcsAI0Kber6YVDz-1">
          <mxGeometry x="330" y="100" width="50" height="60" as="geometry" />
        </mxCell>
        <mxCell id="CO7CpbcsAI0Kber6YVDz-8" value="admin: customers complaint" style="rounded=1;whiteSpace=wrap;html=1;" vertex="1" parent="CO7CpbcsAI0Kber6YVDz-1">
          <mxGeometry x="340" y="20" width="120" height="60" as="geometry" />
        </mxCell>
        <mxCell id="CO7CpbcsAI0Kber6YVDz-9" value="customers complaint" style="rounded=0;whiteSpace=wrap;html=1;" vertex="1" parent="CO7CpbcsAI0Kber6YVDz-1">
          <mxGeometry x="380" y="100" width="60" height="60" as="geometry" />
        </mxCell>
        <mxCell id="CO7CpbcsAI0Kber6YVDz-10" value="current inventory" style="rounded=0;whiteSpace=wrap;html=1;" vertex="1" parent="CO7CpbcsAI0Kber6YVDz-1">
          <mxGeometry x="440" y="100" width="70" height="60" as="geometry" />
        </mxCell>
        <mxCell id="CO7CpbcsAI0Kber6YVDz-11" value="לחיצה על&amp;nbsp; תלונה מרחיבה ומציגה את התלונה" style="text;html=1;strokeColor=none;fillColor=none;align=center;verticalAlign=middle;whiteSpace=wrap;rounded=0;" vertex="1" parent="CO7CpbcsAI0Kber6YVDz-1">
          <mxGeometry x="220" y="360" width="180" height="90" as="geometry" />
        </mxCell>
        <mxCell id="CO7CpbcsAI0Kber6YVDz-12" value="open complaint" style="swimlane;fontStyle=0;childLayout=stackLayout;horizontal=1;startSize=26;fillColor=none;horizontalStack=0;resizeParent=1;resizeParentMax=0;resizeLast=0;collapsible=1;marginBottom=0;" vertex="1" parent="CO7CpbcsAI0Kber6YVDz-1">
          <mxGeometry x="195" y="220" width="175" height="104" as="geometry" />
        </mxCell>
        <mxCell id="CO7CpbcsAI0Kber6YVDz-13" value="Item 1" style="text;strokeColor=none;fillColor=none;align=left;verticalAlign=top;spacingLeft=4;spacingRight=4;overflow=hidden;rotatable=0;points=[[0,0.5],[1,0.5]];portConstraint=eastwest;" vertex="1" parent="CO7CpbcsAI0Kber6YVDz-12">
          <mxGeometry y="26" width="175" height="26" as="geometry" />
        </mxCell>
        <mxCell id="CO7CpbcsAI0Kber6YVDz-14" value="Item 2" style="text;strokeColor=none;fillColor=none;align=left;verticalAlign=top;spacingLeft=4;spacingRight=4;overflow=hidden;rotatable=0;points=[[0,0.5],[1,0.5]];portConstraint=eastwest;" vertex="1" parent="CO7CpbcsAI0Kber6YVDz-12">
          <mxGeometry y="52" width="175" height="26" as="geometry" />
        </mxCell>
        <mxCell id="CO7CpbcsAI0Kber6YVDz-15" value="Item 3" style="text;strokeColor=none;fillColor=none;align=left;verticalAlign=top;spacingLeft=4;spacingRight=4;overflow=hidden;rotatable=0;points=[[0,0.5],[1,0.5]];portConstraint=eastwest;" vertex="1" parent="CO7CpbcsAI0Kber6YVDz-12">
          <mxGeometry y="78" width="175" height="26" as="geometry" />
        </mxCell>
        <mxCell id="qZX6fJyDQh88m6HeI8aK-0" value="closed complaint" style="swimlane;fontStyle=0;childLayout=stackLayout;horizontal=1;startSize=26;fillColor=none;horizontalStack=0;resizeParent=1;resizeParentMax=0;resizeLast=0;collapsible=1;marginBottom=0;" vertex="1" parent="CO7CpbcsAI0Kber6YVDz-1">
          <mxGeometry x="414" y="220" width="175" height="104" as="geometry" />
        </mxCell>
        <mxCell id="qZX6fJyDQh88m6HeI8aK-1" value="Item 1" style="text;strokeColor=none;fillColor=none;align=left;verticalAlign=top;spacingLeft=4;spacingRight=4;overflow=hidden;rotatable=0;points=[[0,0.5],[1,0.5]];portConstraint=eastwest;" vertex="1" parent="qZX6fJyDQh88m6HeI8aK-0">
          <mxGeometry y="26" width="175" height="26" as="geometry" />
        </mxCell>
        <mxCell id="qZX6fJyDQh88m6HeI8aK-2" value="Item 2" style="text;strokeColor=none;fillColor=none;align=left;verticalAlign=top;spacingLeft=4;spacingRight=4;overflow=hidden;rotatable=0;points=[[0,0.5],[1,0.5]];portConstraint=eastwest;" vertex="1" parent="qZX6fJyDQh88m6HeI8aK-0">
          <mxGeometry y="52" width="175" height="26" as="geometry" />
        </mxCell>
        <mxCell id="qZX6fJyDQh88m6HeI8aK-3" value="Item 3" style="text;strokeColor=none;fillColor=none;align=left;verticalAlign=top;spacingLeft=4;spacingRight=4;overflow=hidden;rotatable=0;points=[[0,0.5],[1,0.5]];portConstraint=eastwest;" vertex="1" parent="qZX6fJyDQh88m6HeI8aK-0">
          <mxGeometry y="78" width="175" height="26" as="geometry" />
        </mxCell>
      </root>
    </mxGraphModel>
  </diagram>
  <diagram name="admin: current inventory" id="50MehSbIVwLnW9CgQq9B">
    <mxGraphModel dx="782" dy="469" grid="1" gridSize="10" guides="1" tooltips="1" connect="1" arrows="1" fold="1" page="1" pageScale="1" pageWidth="827" pageHeight="1169" math="0" shadow="0">
      <root>
        <mxCell id="2271lnLevuK9i9tE23ES-0" />
        <mxCell id="2271lnLevuK9i9tE23ES-1" parent="2271lnLevuK9i9tE23ES-0" />
        <mxCell id="2271lnLevuK9i9tE23ES-2" value="" style="whiteSpace=wrap;html=1;aspect=fixed;" vertex="1" parent="2271lnLevuK9i9tE23ES-1">
          <mxGeometry x="170" y="160" width="460" height="460" as="geometry" />
        </mxCell>
        <mxCell id="2271lnLevuK9i9tE23ES-3" value="login\logout" style="rounded=0;whiteSpace=wrap;html=1;" vertex="1" parent="2271lnLevuK9i9tE23ES-1">
          <mxGeometry x="510" y="100" width="120" height="60" as="geometry" />
        </mxCell>
        <mxCell id="2271lnLevuK9i9tE23ES-4" value="" style="rounded=0;whiteSpace=wrap;html=1;" vertex="1" parent="2271lnLevuK9i9tE23ES-1">
          <mxGeometry x="170" y="100" width="340" height="60" as="geometry" />
        </mxCell>
        <mxCell id="2271lnLevuK9i9tE23ES-5" value="new shpiment arrival" style="rounded=0;whiteSpace=wrap;html=1;" vertex="1" parent="2271lnLevuK9i9tE23ES-1">
          <mxGeometry x="170" y="100" width="80" height="60" as="geometry" />
        </mxCell>
        <mxCell id="2271lnLevuK9i9tE23ES-6" value="current orders open" style="rounded=0;whiteSpace=wrap;html=1;" vertex="1" parent="2271lnLevuK9i9tE23ES-1">
          <mxGeometry x="250" y="100" width="80" height="60" as="geometry" />
        </mxCell>
        <mxCell id="2271lnLevuK9i9tE23ES-7" value="orders history" style="rounded=0;whiteSpace=wrap;html=1;" vertex="1" parent="2271lnLevuK9i9tE23ES-1">
          <mxGeometry x="330" y="100" width="50" height="60" as="geometry" />
        </mxCell>
        <mxCell id="2271lnLevuK9i9tE23ES-8" value="admin: current inventory" style="rounded=1;whiteSpace=wrap;html=1;" vertex="1" parent="2271lnLevuK9i9tE23ES-1">
          <mxGeometry x="340" y="20" width="120" height="60" as="geometry" />
        </mxCell>
        <mxCell id="2271lnLevuK9i9tE23ES-9" value="customers complaint" style="rounded=0;whiteSpace=wrap;html=1;" vertex="1" parent="2271lnLevuK9i9tE23ES-1">
          <mxGeometry x="380" y="100" width="60" height="60" as="geometry" />
        </mxCell>
        <mxCell id="2271lnLevuK9i9tE23ES-10" value="current inventory" style="rounded=0;whiteSpace=wrap;html=1;" vertex="1" parent="2271lnLevuK9i9tE23ES-1">
          <mxGeometry x="440" y="100" width="70" height="60" as="geometry" />
        </mxCell>
        <mxCell id="2271lnLevuK9i9tE23ES-11" value="אפשרות לשנות את המלאי ידנית" style="text;html=1;strokeColor=none;fillColor=none;align=center;verticalAlign=middle;whiteSpace=wrap;rounded=0;" vertex="1" parent="2271lnLevuK9i9tE23ES-1">
          <mxGeometry x="414" y="234" width="180" height="90" as="geometry" />
        </mxCell>
        <mxCell id="2271lnLevuK9i9tE23ES-12" value="item list" style="swimlane;fontStyle=0;childLayout=stackLayout;horizontal=1;startSize=26;fillColor=none;horizontalStack=0;resizeParent=1;resizeParentMax=0;resizeLast=0;collapsible=1;marginBottom=0;" vertex="1" parent="2271lnLevuK9i9tE23ES-1">
          <mxGeometry x="195" y="220" width="175" height="104" as="geometry" />
        </mxCell>
        <mxCell id="2271lnLevuK9i9tE23ES-13" value="Item 1" style="text;strokeColor=none;fillColor=none;align=left;verticalAlign=top;spacingLeft=4;spacingRight=4;overflow=hidden;rotatable=0;points=[[0,0.5],[1,0.5]];portConstraint=eastwest;" vertex="1" parent="2271lnLevuK9i9tE23ES-12">
          <mxGeometry y="26" width="175" height="26" as="geometry" />
        </mxCell>
        <mxCell id="2271lnLevuK9i9tE23ES-14" value="Item 2" style="text;strokeColor=none;fillColor=none;align=left;verticalAlign=top;spacingLeft=4;spacingRight=4;overflow=hidden;rotatable=0;points=[[0,0.5],[1,0.5]];portConstraint=eastwest;" vertex="1" parent="2271lnLevuK9i9tE23ES-12">
          <mxGeometry y="52" width="175" height="26" as="geometry" />
        </mxCell>
        <mxCell id="2271lnLevuK9i9tE23ES-15" value="Item 3" style="text;strokeColor=none;fillColor=none;align=left;verticalAlign=top;spacingLeft=4;spacingRight=4;overflow=hidden;rotatable=0;points=[[0,0.5],[1,0.5]];portConstraint=eastwest;" vertex="1" parent="2271lnLevuK9i9tE23ES-12">
          <mxGeometry y="78" width="175" height="26" as="geometry" />
        </mxCell>
        <mxCell id="2271lnLevuK9i9tE23ES-20" value="submit" style="rounded=1;whiteSpace=wrap;html=1;" vertex="1" parent="2271lnLevuK9i9tE23ES-1">
          <mxGeometry x="280" y="360" width="70" height="20" as="geometry" />
        </mxCell>
      </root>
    </mxGraphModel>
  </diagram>
  <diagram id="fJBjM22QvVY4jTIdtNlR" name="component">
    <mxGraphModel dx="920" dy="552" grid="1" gridSize="10" guides="1" tooltips="1" connect="1" arrows="1" fold="1" page="1" pageScale="1" pageWidth="827" pageHeight="1169" math="0" shadow="0">
      <root>
        <mxCell id="amAgbEKfWJSN6cgixlKF-0" />
        <mxCell id="amAgbEKfWJSN6cgixlKF-1" parent="amAgbEKfWJSN6cgixlKF-0" />
        <mxCell id="9SP0PJN_BwGwbXqi02-5-0" value="" style="whiteSpace=wrap;html=1;aspect=fixed;" vertex="1" parent="amAgbEKfWJSN6cgixlKF-1">
          <mxGeometry x="140" y="50" width="500" height="500" as="geometry" />
        </mxCell>
        <mxCell id="jrqKy_MVV2PFKVftY9QK-1" value="&lt;font style=&quot;font-size: 14px&quot;&gt;&lt;b&gt;login\log out&lt;/b&gt;&lt;/font&gt;" style="text;html=1;strokeColor=none;fillColor=none;align=center;verticalAlign=middle;whiteSpace=wrap;rounded=0;" vertex="1" parent="amAgbEKfWJSN6cgixlKF-1">
          <mxGeometry x="130" y="70" width="160" height="40" as="geometry" />
        </mxCell>
        <mxCell id="jrqKy_MVV2PFKVftY9QK-2" value="&lt;font style=&quot;font-size: 14px&quot;&gt;&lt;b&gt;form&lt;br&gt;&lt;br&gt;&lt;/b&gt;&lt;/font&gt;" style="text;html=1;strokeColor=none;fillColor=none;align=center;verticalAlign=middle;whiteSpace=wrap;rounded=0;" vertex="1" parent="amAgbEKfWJSN6cgixlKF-1">
          <mxGeometry x="140" y="120" width="160" height="40" as="geometry" />
        </mxCell>
        <mxCell id="jrqKy_MVV2PFKVftY9QK-3" value="&lt;font style=&quot;font-size: 14px&quot;&gt;&lt;b&gt;button submit&lt;br&gt;&lt;/b&gt;&lt;/font&gt;" style="text;html=1;strokeColor=none;fillColor=none;align=center;verticalAlign=middle;whiteSpace=wrap;rounded=0;" vertex="1" parent="amAgbEKfWJSN6cgixlKF-1">
          <mxGeometry x="130" y="160" width="160" height="40" as="geometry" />
        </mxCell>
        <mxCell id="mcfzmQENLgPat_Y0sC_C-0" value="&lt;font style=&quot;font-size: 14px&quot;&gt;&lt;b&gt;list&lt;br&gt;&lt;br&gt;&lt;/b&gt;&lt;/font&gt;" style="text;html=1;strokeColor=none;fillColor=none;align=center;verticalAlign=middle;whiteSpace=wrap;rounded=0;" vertex="1" parent="amAgbEKfWJSN6cgixlKF-1">
          <mxGeometry x="130" y="220" width="160" height="40" as="geometry" />
        </mxCell>
        <mxCell id="vnBUcKSsFdV91fw2qwav-0" value="&lt;font style=&quot;font-size: 14px&quot;&gt;&lt;b&gt;&lt;br&gt;&lt;/b&gt;&lt;/font&gt;" style="text;html=1;strokeColor=none;fillColor=none;align=center;verticalAlign=middle;whiteSpace=wrap;rounded=0;" vertex="1" parent="amAgbEKfWJSN6cgixlKF-1">
          <mxGeometry x="130" y="260" width="160" height="40" as="geometry" />
        </mxCell>
        <mxCell id="vnBUcKSsFdV91fw2qwav-1" value="&lt;font style=&quot;font-size: 14px&quot;&gt;&lt;b&gt;expanded list&lt;br&gt;&lt;br&gt;&lt;/b&gt;&lt;/font&gt;" style="text;html=1;strokeColor=none;fillColor=none;align=center;verticalAlign=middle;whiteSpace=wrap;rounded=0;" vertex="1" parent="amAgbEKfWJSN6cgixlKF-1">
          <mxGeometry x="130" y="270" width="160" height="40" as="geometry" />
        </mxCell>
        <mxCell id="vRcu5Jm8l8d3tfTaJny--0" value="&lt;font style=&quot;font-size: 14px&quot;&gt;&lt;b&gt;header&lt;br&gt;&lt;/b&gt;&lt;/font&gt;" style="text;html=1;strokeColor=none;fillColor=none;align=center;verticalAlign=middle;whiteSpace=wrap;rounded=0;" vertex="1" parent="amAgbEKfWJSN6cgixlKF-1">
          <mxGeometry x="130" y="320" width="160" height="40" as="geometry" />
        </mxCell>
        <mxCell id="IfGrV51nrfqk0WVJjWtv-0" value="&lt;font style=&quot;font-size: 14px&quot;&gt;&lt;b&gt;app&lt;br&gt;&lt;br&gt;&lt;/b&gt;&lt;/font&gt;" style="text;html=1;strokeColor=none;fillColor=none;align=center;verticalAlign=middle;whiteSpace=wrap;rounded=0;" vertex="1" parent="amAgbEKfWJSN6cgixlKF-1">
          <mxGeometry x="121" y="371" width="160" height="40" as="geometry" />
        </mxCell>
        <mxCell id="EvFWbjqNORMX4nIt2ZDr-0" value="&lt;font style=&quot;font-size: 14px&quot;&gt;&lt;b&gt;new order&lt;br&gt;&lt;/b&gt;&lt;/font&gt;" style="text;html=1;strokeColor=none;fillColor=none;align=center;verticalAlign=middle;whiteSpace=wrap;rounded=0;" vertex="1" parent="amAgbEKfWJSN6cgixlKF-1">
          <mxGeometry x="120" y="410" width="160" height="40" as="geometry" />
        </mxCell>
        <mxCell id="EvFWbjqNORMX4nIt2ZDr-1" value="&lt;font style=&quot;font-size: 21px&quot;&gt;component list&lt;/font&gt;" style="text;html=1;strokeColor=none;fillColor=none;align=center;verticalAlign=middle;whiteSpace=wrap;rounded=0;" vertex="1" parent="amAgbEKfWJSN6cgixlKF-1">
          <mxGeometry x="270" y="20" width="150" height="20" as="geometry" />
        </mxCell>
        <mxCell id="EvFWbjqNORMX4nIt2ZDr-2" value="&lt;font style=&quot;font-size: 14px&quot;&gt;&lt;b&gt;open orders&lt;br&gt;&lt;/b&gt;&lt;/font&gt;" style="text;html=1;strokeColor=none;fillColor=none;align=center;verticalAlign=middle;whiteSpace=wrap;rounded=0;" vertex="1" parent="amAgbEKfWJSN6cgixlKF-1">
          <mxGeometry x="120" y="450" width="160" height="40" as="geometry" />
        </mxCell>
        <mxCell id="EvFWbjqNORMX4nIt2ZDr-3" value="&lt;font style=&quot;font-size: 14px&quot;&gt;&lt;b&gt;orders history&lt;br&gt;&lt;/b&gt;&lt;/font&gt;" style="text;html=1;strokeColor=none;fillColor=none;align=center;verticalAlign=middle;whiteSpace=wrap;rounded=0;" vertex="1" parent="amAgbEKfWJSN6cgixlKF-1">
          <mxGeometry x="120" y="480" width="160" height="40" as="geometry" />
        </mxCell>
        <mxCell id="EvFWbjqNORMX4nIt2ZDr-4" value="&lt;font style=&quot;font-size: 14px&quot;&gt;&lt;b&gt;customer complaint&lt;br&gt;&lt;/b&gt;&lt;/font&gt;" style="text;html=1;strokeColor=none;fillColor=none;align=center;verticalAlign=middle;whiteSpace=wrap;rounded=0;" vertex="1" parent="amAgbEKfWJSN6cgixlKF-1">
          <mxGeometry x="290" y="80" width="160" height="40" as="geometry" />
        </mxCell>
        <mxCell id="ss9mBhI05JTAyMCkaPcY-0" value="&lt;font style=&quot;font-size: 14px&quot;&gt;&lt;b&gt;current inventory&lt;br&gt;&lt;/b&gt;&lt;/font&gt;" style="text;html=1;strokeColor=none;fillColor=none;align=center;verticalAlign=middle;whiteSpace=wrap;rounded=0;" vertex="1" parent="amAgbEKfWJSN6cgixlKF-1">
          <mxGeometry x="290" y="120" width="160" height="40" as="geometry" />
        </mxCell>
        <mxCell id="GsRYx2eyqX1FqywE_7R8-0" value="&lt;font style=&quot;font-size: 14px&quot;&gt;&lt;b&gt;shipment arrival&lt;br&gt;&lt;/b&gt;&lt;/font&gt;" style="text;html=1;strokeColor=none;fillColor=none;align=center;verticalAlign=middle;whiteSpace=wrap;rounded=0;" vertex="1" parent="amAgbEKfWJSN6cgixlKF-1">
          <mxGeometry x="290" y="170" width="160" height="40" as="geometry" />
        </mxCell>
      </root>
    </mxGraphModel>
  </diagram>
  <diagram id="ClZUOeH8LXB0rTXifhmR" name="reducers">
    <mxGraphModel dx="920" dy="552" grid="1" gridSize="10" guides="1" tooltips="1" connect="1" arrows="1" fold="1" page="1" pageScale="1" pageWidth="827" pageHeight="1169" math="0" shadow="0">
      <root>
        <mxCell id="g5imTzhx3ugHSuoq76p6-0" />
        <mxCell id="g5imTzhx3ugHSuoq76p6-1" parent="g5imTzhx3ugHSuoq76p6-0" />
        <mxCell id="g5imTzhx3ugHSuoq76p6-2" value="" style="whiteSpace=wrap;html=1;aspect=fixed;" vertex="1" parent="g5imTzhx3ugHSuoq76p6-1">
          <mxGeometry x="120" y="20" width="480" height="480" as="geometry" />
        </mxCell>
        <mxCell id="g5imTzhx3ugHSuoq76p6-3" value="&lt;b&gt;&lt;font style=&quot;font-size: 17px&quot;&gt;index&lt;/font&gt;&lt;/b&gt;" style="text;html=1;strokeColor=none;fillColor=none;align=center;verticalAlign=middle;whiteSpace=wrap;rounded=0;" vertex="1" parent="g5imTzhx3ugHSuoq76p6-1">
          <mxGeometry x="200" y="80" width="40" height="20" as="geometry" />
        </mxCell>
        <mxCell id="0IjeKqPkabmXruI-5atR-0" value="&lt;b&gt;&lt;font style=&quot;font-size: 17px&quot;&gt;authentication&lt;/font&gt;&lt;/b&gt;" style="text;html=1;strokeColor=none;fillColor=none;align=center;verticalAlign=middle;whiteSpace=wrap;rounded=0;" vertex="1" parent="g5imTzhx3ugHSuoq76p6-1">
          <mxGeometry x="200" y="120" width="40" height="20" as="geometry" />
        </mxCell>
        <mxCell id="0IjeKqPkabmXruI-5atR-1" value="&lt;b&gt;&lt;font style=&quot;font-size: 17px&quot;&gt;items&lt;br&gt;&lt;/font&gt;&lt;/b&gt;" style="text;html=1;strokeColor=none;fillColor=none;align=center;verticalAlign=middle;whiteSpace=wrap;rounded=0;" vertex="1" parent="g5imTzhx3ugHSuoq76p6-1">
          <mxGeometry x="200" y="170" width="40" height="20" as="geometry" />
        </mxCell>
        <mxCell id="0IjeKqPkabmXruI-5atR-2" value="&lt;b&gt;&lt;font style=&quot;font-size: 17px&quot;&gt;customers&lt;br&gt;&lt;br&gt;&lt;/font&gt;&lt;/b&gt;" style="text;html=1;strokeColor=none;fillColor=none;align=center;verticalAlign=middle;whiteSpace=wrap;rounded=0;" vertex="1" parent="g5imTzhx3ugHSuoq76p6-1">
          <mxGeometry x="200" y="230" width="40" height="20" as="geometry" />
        </mxCell>
        <mxCell id="0IjeKqPkabmXruI-5atR-3" value="&lt;b&gt;&lt;font style=&quot;font-size: 17px&quot;&gt;admins&lt;br&gt;&lt;/font&gt;&lt;/b&gt;" style="text;html=1;strokeColor=none;fillColor=none;align=center;verticalAlign=middle;whiteSpace=wrap;rounded=0;" vertex="1" parent="g5imTzhx3ugHSuoq76p6-1">
          <mxGeometry x="200" y="280" width="40" height="20" as="geometry" />
        </mxCell>
        <mxCell id="0IjeKqPkabmXruI-5atR-4" value="&lt;b&gt;&lt;font style=&quot;font-size: 17px&quot;&gt;complaints&lt;br&gt;&lt;/font&gt;&lt;/b&gt;" style="text;html=1;strokeColor=none;fillColor=none;align=center;verticalAlign=middle;whiteSpace=wrap;rounded=0;" vertex="1" parent="g5imTzhx3ugHSuoq76p6-1">
          <mxGeometry x="200" y="320" width="40" height="20" as="geometry" />
        </mxCell>
        <mxCell id="0IjeKqPkabmXruI-5atR-5" value="&lt;b&gt;&lt;font style=&quot;font-size: 17px&quot;&gt;orders&lt;br&gt;&lt;/font&gt;&lt;/b&gt;" style="text;html=1;strokeColor=none;fillColor=none;align=center;verticalAlign=middle;whiteSpace=wrap;rounded=0;" vertex="1" parent="g5imTzhx3ugHSuoq76p6-1">
          <mxGeometry x="200" y="380" width="40" height="20" as="geometry" />
        </mxCell>
      </root>
    </mxGraphModel>
  </diagram>
  <diagram id="d91oWRozc3R6Og0Ipbco" name="actions">
    <mxGraphModel dx="782" dy="469" grid="1" gridSize="10" guides="1" tooltips="1" connect="1" arrows="1" fold="1" page="1" pageScale="1" pageWidth="827" pageHeight="1169" math="0" shadow="0">
      <root>
        <mxCell id="9rRXj9AzcguOULufnbAd-0" />
        <mxCell id="9rRXj9AzcguOULufnbAd-1" parent="9rRXj9AzcguOULufnbAd-0" />
        <mxCell id="9rRXj9AzcguOULufnbAd-2" value="" style="rounded=0;whiteSpace=wrap;html=1;" vertex="1" parent="9rRXj9AzcguOULufnbAd-1">
          <mxGeometry x="100" y="30" width="480" height="310" as="geometry" />
        </mxCell>
        <mxCell id="9rRXj9AzcguOULufnbAd-3" value="&lt;span style=&quot;font-size: 16px&quot;&gt;&lt;b&gt;new order&lt;/b&gt;&lt;/span&gt;" style="text;html=1;strokeColor=none;fillColor=none;align=center;verticalAlign=middle;whiteSpace=wrap;rounded=0;" vertex="1" parent="9rRXj9AzcguOULufnbAd-1">
          <mxGeometry x="170" y="70" width="90" height="20" as="geometry" />
        </mxCell>
        <mxCell id="9rRXj9AzcguOULufnbAd-4" value="&lt;span style=&quot;font-size: 16px&quot;&gt;&lt;b&gt;show open orders&lt;/b&gt;&lt;/span&gt;" style="text;html=1;strokeColor=none;fillColor=none;align=center;verticalAlign=middle;whiteSpace=wrap;rounded=0;" vertex="1" parent="9rRXj9AzcguOULufnbAd-1">
          <mxGeometry x="170" y="110" width="90" height="20" as="geometry" />
        </mxCell>
        <mxCell id="9rRXj9AzcguOULufnbAd-6" value="&lt;span style=&quot;font-size: 16px&quot;&gt;&lt;b&gt;show history&lt;/b&gt;&lt;/span&gt;" style="text;html=1;strokeColor=none;fillColor=none;align=center;verticalAlign=middle;whiteSpace=wrap;rounded=0;" vertex="1" parent="9rRXj9AzcguOULufnbAd-1">
          <mxGeometry x="170" y="160" width="90" height="20" as="geometry" />
        </mxCell>
        <mxCell id="9rRXj9AzcguOULufnbAd-7" value="&lt;span style=&quot;font-size: 16px&quot;&gt;&lt;b&gt;show item list&lt;/b&gt;&lt;/span&gt;" style="text;html=1;strokeColor=none;fillColor=none;align=center;verticalAlign=middle;whiteSpace=wrap;rounded=0;" vertex="1" parent="9rRXj9AzcguOULufnbAd-1">
          <mxGeometry x="170" y="220" width="90" height="20" as="geometry" />
        </mxCell>
        <mxCell id="9rRXj9AzcguOULufnbAd-8" value="&lt;span style=&quot;font-size: 16px&quot;&gt;&lt;b&gt;new shipment&lt;/b&gt;&lt;/span&gt;" style="text;html=1;strokeColor=none;fillColor=none;align=center;verticalAlign=middle;whiteSpace=wrap;rounded=0;" vertex="1" parent="9rRXj9AzcguOULufnbAd-1">
          <mxGeometry x="170" y="270" width="90" height="20" as="geometry" />
        </mxCell>
        <mxCell id="zEKOW0ppbYyMGLJGLPPx-0" value="&lt;span style=&quot;font-size: 16px&quot;&gt;&lt;b&gt;sign&lt;/b&gt;&lt;/span&gt;" style="text;html=1;strokeColor=none;fillColor=none;align=center;verticalAlign=middle;whiteSpace=wrap;rounded=0;" vertex="1" parent="9rRXj9AzcguOULufnbAd-1">
          <mxGeometry x="340" y="60" width="90" height="20" as="geometry" />
        </mxCell>
      </root>
    </mxGraphModel>
  </diagram>
</mxfile>
